<?xml version="1.0" encoding="utf-8"?>
<!-- Generator: Adobe Illustrator 17.0.0, SVG Export Plug-In . SVG Version: 6.00 Build 0)  -->
<!DOCTYPE svg PUBLIC "-//W3C//DTD SVG 1.1//EN" "http://www.w3.org/Graphics/SVG/1.1/DTD/svg11.dtd">
<svg version="1.1" id="Layer_1" xmlns="http://www.w3.org/2000/svg" xmlns:xlink="http://www.w3.org/1999/xlink" x="0px" y="0px"
	 width="140.708px" height="101.77px" viewBox="0 0 140.708 101.77" enable-background="new 0 0 140.708 101.77"
	 xml:space="preserve">
<g>
	<path fill="#62BA46" d="M12.172,15.71v21.794h116.736V15.71c0-3-2.432-5.432-5.43-5.432H17.606
		C14.605,10.278,12.172,12.71,12.172,15.71z"/>
	<rect x="12.172" y="37.505" fill="#E6E7E8" width="116.736" height="27.226"/>
	<path fill="#EC1C24" d="M12.172,86.515c0,3.003,2.433,5.436,5.434,5.436h105.871c2.999,0,5.43-2.433,5.43-5.436V64.73H12.172
		V86.515z"/>
	<g>
		<polygon fill="#E6E7E8" points="13.339,36.521 14.036,36.521 14.036,35.34 15.517,35.34 15.517,36.551 18.275,36.551 
			18.275,34.674 17.054,34.674 17.054,35.249 17.694,35.249 17.694,35.915 16.183,35.915 16.183,34.644 13.339,34.644 		"/>
		<rect x="13.339" y="33.342" fill="#E6E7E8" width="7.637" height="0.696"/>
		<polygon fill="#E6E7E8" points="25.012,33.342 25.012,36.581 21.905,36.581 21.905,35.34 20.103,35.34 20.103,36.006 
			20.975,36.006 20.975,36.581 19.464,36.581 19.464,34.704 21.584,34.704 21.584,33.342 22.514,33.342 22.514,35.856 
			23.122,35.856 23.122,33.342 23.819,33.342 23.819,35.856 24.371,35.856 24.371,33.342 		"/>
		<rect x="14.471" y="35.974" fill="#E6E7E8" width="0.614" height="0.578"/>
	</g>
	<g>
		<path fill="#EC1C24" d="M82.034,50.808c0-3.906-2.437-7.305-6.034-9.065c2.446,2.009,4.041,5.294,4.041,9.008
			c0,3.893-1.751,7.312-4.398,9.289C79.432,58.332,82.034,54.841,82.034,50.808z"/>
		<path fill="#EC1C24" d="M60.727,50.75c0-3.714,1.595-6.999,4.039-9.008c-3.596,1.76-6.031,5.159-6.031,9.065
			c0,4.033,2.598,7.524,6.389,9.232C62.48,58.063,60.727,54.643,60.727,50.75z"/>
		<path fill="#EC1C24" d="M63.288,61.272h13.829c0,0-6.259-0.584-6.989-3.3C70.128,57.972,69.111,60.544,63.288,61.272z"/>
		<g>
			<path fill="#EC1C24" d="M70.177,40.018c-1.017,1.748-3.249-0.63-3.249-0.63c0,1.797,2.449,2.403,2.449,2.403l0.8-0.801
				l0.801,0.801c0,0,2.449-0.607,2.449-2.403C73.427,39.387,71.194,41.766,70.177,40.018z"/>
		</g>
		<g>
			<path fill="#EC1C24" d="M73.602,42.76c5.67,9.351-2.221,15.48-2.221,15.48V43.144l-1.303-1.304l-1.304,1.304V58.24
				c0,0-7.891-6.13-2.22-15.48c0,0-10.753,8.102,3.655,20.211C84.617,50.862,73.602,42.76,73.602,42.76z"/>
		</g>
	</g>
	<rect x="12.172" y="37.505" fill="#37B34A" width="1.167" height="1.215"/>
	<rect x="18.3" y="37.505" fill="#37B34A" width="1.163" height="1.215"/>
	<rect x="25.012" y="37.505" fill="#37B34A" width="1.163" height="1.215"/>
	<g>
		<polygon fill="#E6E7E8" points="26.175,36.521 26.872,36.521 26.872,35.34 28.353,35.34 28.353,36.551 31.111,36.551 
			31.111,34.674 29.893,34.674 29.893,35.249 30.531,35.249 30.531,35.915 29.021,35.915 29.021,34.644 26.175,34.644 		"/>
		<rect x="26.175" y="33.342" fill="#E6E7E8" width="7.638" height="0.696"/>
		<polygon fill="#E6E7E8" points="37.848,33.342 37.848,36.581 34.741,36.581 34.741,35.34 32.94,35.34 32.94,36.006 33.813,36.006 
			33.813,36.581 32.302,36.581 32.302,34.704 34.42,34.704 34.42,33.342 35.35,33.342 35.35,35.856 35.962,35.856 35.962,33.342 
			36.659,33.342 36.659,35.856 37.211,35.856 37.211,33.342 		"/>
		<rect x="27.307" y="35.974" fill="#E6E7E8" width="0.615" height="0.578"/>
	</g>
	<rect x="31.137" y="37.505" fill="#37B34A" width="1.165" height="1.215"/>
	<rect x="37.848" y="37.505" fill="#37B34A" width="1.166" height="1.215"/>
	<g>
		<polygon fill="#E6E7E8" points="39.015,36.521 39.711,36.521 39.711,35.34 41.192,35.34 41.192,36.551 43.95,36.551 43.95,34.674 
			42.731,34.674 42.731,35.249 43.37,35.249 43.37,35.915 41.858,35.915 41.858,34.644 39.015,34.644 		"/>
		<rect x="39.015" y="33.342" fill="#E6E7E8" width="7.634" height="0.696"/>
		<polygon fill="#E6E7E8" points="50.688,33.342 50.688,36.581 47.58,36.581 47.58,35.34 45.776,35.34 45.776,36.006 46.648,36.006 
			46.648,36.581 45.139,36.581 45.139,34.704 47.261,34.704 47.261,33.342 48.189,33.342 48.189,35.856 48.798,35.856 
			48.798,33.342 49.494,33.342 49.494,35.856 50.046,35.856 50.046,33.342 		"/>
		<rect x="40.144" y="35.974" fill="#E6E7E8" width="0.617" height="0.578"/>
	</g>
	<rect x="43.973" y="37.505" fill="#37B34A" width="1.166" height="1.215"/>
	<rect x="50.688" y="37.505" fill="#37B34A" width="1.163" height="1.215"/>
	<g>
		<polygon fill="#E6E7E8" points="51.85,36.521 52.547,36.521 52.547,35.34 54.028,35.34 54.028,36.551 56.787,36.551 
			56.787,34.674 55.569,34.674 55.569,35.249 56.207,35.249 56.207,35.915 54.697,35.915 54.697,34.644 51.85,34.644 		"/>
		<rect x="51.85" y="33.342" fill="#E6E7E8" width="7.638" height="0.696"/>
		<polygon fill="#E6E7E8" points="63.523,33.342 63.523,36.581 60.416,36.581 60.416,35.34 58.615,35.34 58.615,36.006 
			59.488,36.006 59.488,36.581 57.978,36.581 57.978,34.704 60.096,34.704 60.096,33.342 61.025,33.342 61.025,35.856 
			61.637,35.856 61.637,33.342 62.332,33.342 62.332,35.856 62.883,35.856 62.883,33.342 		"/>
		<rect x="52.982" y="35.974" fill="#E6E7E8" width="0.615" height="0.578"/>
	</g>
	<rect x="56.812" y="37.505" fill="#37B34A" width="1.165" height="1.215"/>
	<rect x="63.523" y="37.505" fill="#37B34A" width="1.163" height="1.215"/>
	<g>
		<polygon fill="#E6E7E8" points="64.687,36.521 65.384,36.521 65.384,35.34 66.865,35.34 66.865,36.551 69.626,36.551 
			69.626,34.674 68.406,34.674 68.406,35.249 69.042,35.249 69.042,35.915 67.533,35.915 67.533,34.644 64.687,34.644 		"/>
		<rect x="64.687" y="33.342" fill="#E6E7E8" width="7.637" height="0.696"/>
		<polygon fill="#E6E7E8" points="76.36,33.342 76.36,36.581 73.254,36.581 73.254,35.34 71.453,35.34 71.453,36.006 72.323,36.006 
			72.323,36.581 70.814,36.581 70.814,34.704 72.933,34.704 72.933,33.342 73.865,33.342 73.865,35.856 74.472,35.856 
			74.472,33.342 75.171,33.342 75.171,35.856 75.721,35.856 75.721,33.342 		"/>
		<rect x="65.818" y="35.974" fill="#E6E7E8" width="0.614" height="0.578"/>
	</g>
	<rect x="69.652" y="37.505" fill="#37B34A" width="1.163" height="1.215"/>
	<rect x="76.36" y="37.505" fill="#37B34A" width="1.165" height="1.215"/>
	<g>
		<polygon fill="#E6E7E8" points="77.526,36.521 78.223,36.521 78.223,35.34 79.704,35.34 79.704,36.551 82.462,36.551 
			82.462,34.674 81.241,34.674 81.241,35.249 81.881,35.249 81.881,35.915 80.37,35.915 80.37,34.644 77.526,34.644 		"/>
		<rect x="77.526" y="33.342" fill="#E6E7E8" width="7.638" height="0.696"/>
		<polygon fill="#E6E7E8" points="89.2,33.342 89.2,36.581 86.092,36.581 86.092,35.34 84.292,35.34 84.292,36.006 85.163,36.006 
			85.163,36.581 83.652,36.581 83.652,34.704 85.771,34.704 85.771,33.342 86.7,33.342 86.7,35.856 87.31,35.856 87.31,33.342 
			88.006,33.342 88.006,35.856 88.56,35.856 88.56,33.342 		"/>
		<rect x="78.658" y="35.974" fill="#E6E7E8" width="0.615" height="0.578"/>
	</g>
	<rect x="82.487" y="37.505" fill="#37B34A" width="1.163" height="1.215"/>
	<rect x="89.2" y="37.505" fill="#37B34A" width="1.163" height="1.215"/>
	<g>
		<polygon fill="#E6E7E8" points="90.362,36.521 91.059,36.521 91.059,35.34 92.54,35.34 92.54,36.551 95.298,36.551 95.298,34.674 
			94.079,34.674 94.079,35.249 94.718,35.249 94.718,35.915 93.209,35.915 93.209,34.644 90.362,34.644 		"/>
		<rect x="90.362" y="33.342" fill="#E6E7E8" width="7.637" height="0.696"/>
		<polygon fill="#E6E7E8" points="102.035,33.342 102.035,36.581 98.928,36.581 98.928,35.34 97.128,35.34 97.128,36.006 
			97.999,36.006 97.999,36.581 96.491,36.581 96.491,34.704 98.608,34.704 98.608,33.342 99.537,33.342 99.537,35.856 
			100.149,35.856 100.149,33.342 100.846,33.342 100.846,35.856 101.399,35.856 101.399,33.342 		"/>
		<rect x="91.494" y="35.974" fill="#E6E7E8" width="0.615" height="0.578"/>
	</g>
	<rect x="95.325" y="37.505" fill="#37B34A" width="1.166" height="1.215"/>
	<rect x="102.035" y="37.505" fill="#37B34A" width="1.163" height="1.215"/>
	<g>
		<polygon fill="#E6E7E8" points="103.198,36.521 103.896,36.521 103.896,35.34 105.379,35.34 105.379,36.551 108.135,36.551 
			108.135,34.674 106.917,34.674 106.917,35.249 107.554,35.249 107.554,35.915 106.045,35.915 106.045,34.644 103.198,34.644 		"/>
		<rect x="103.198" y="33.342" fill="#E6E7E8" width="7.638" height="0.696"/>
		<polygon fill="#E6E7E8" points="114.872,33.342 114.872,36.581 111.765,36.581 111.765,35.34 109.967,35.34 109.967,36.006 
			110.835,36.006 110.835,36.581 109.326,36.581 109.326,34.704 111.449,34.704 111.449,33.342 112.376,33.342 112.376,35.856 
			112.985,35.856 112.985,33.342 113.683,33.342 113.683,35.856 114.234,35.856 114.234,33.342 		"/>
		<rect x="104.331" y="35.974" fill="#E6E7E8" width="0.614" height="0.578"/>
	</g>
	<rect x="108.16" y="37.505" fill="#37B34A" width="1.166" height="1.215"/>
	<rect x="114.872" y="37.505" fill="#37B34A" width="1.165" height="1.215"/>
	<g>
		<polygon fill="#E6E7E8" points="116.037,36.521 116.735,36.521 116.735,35.34 118.215,35.34 118.215,36.551 120.974,36.551 
			120.974,34.674 119.753,34.674 119.753,35.249 120.394,35.249 120.394,35.915 118.881,35.915 118.881,34.644 116.037,34.644 		"/>
		<rect x="116.037" y="33.342" fill="#E6E7E8" width="7.638" height="0.696"/>
		<polygon fill="#E6E7E8" points="127.71,33.342 127.71,36.581 124.604,36.581 124.604,35.34 122.803,35.34 122.803,36.006 
			123.675,36.006 123.675,36.581 122.162,36.581 122.162,34.704 124.284,34.704 124.284,33.342 125.213,33.342 125.213,35.856 
			125.821,35.856 125.821,33.342 126.52,33.342 126.52,35.856 127.071,35.856 127.071,33.342 		"/>
		<rect x="117.167" y="35.974" fill="#E6E7E8" width="0.618" height="0.578"/>
	</g>
	<rect x="120.999" y="37.505" fill="#37B34A" width="1.163" height="1.215"/>
	<rect x="127.743" y="37.505" fill="#37B34A" width="1.165" height="1.215"/>
	<g>
		<polygon fill="#E6E7E8" points="13.339,65.707 14.036,65.707 14.036,66.887 15.517,66.887 15.517,65.676 18.275,65.676 
			18.275,67.553 17.054,67.553 17.054,66.979 17.694,66.979 17.694,66.313 16.183,66.313 16.183,67.585 13.339,67.585 		"/>
		<rect x="13.339" y="68.189" fill="#E6E7E8" width="7.637" height="0.696"/>
		<polygon fill="#E6E7E8" points="25.012,68.885 25.012,65.647 21.905,65.647 21.905,66.887 20.103,66.887 20.103,66.221 
			20.975,66.221 20.975,65.647 19.464,65.647 19.464,67.523 21.584,67.523 21.584,68.885 22.514,68.885 22.514,66.373 
			23.125,66.373 23.125,68.885 23.819,68.885 23.819,66.373 24.371,66.373 24.371,68.885 		"/>
		<rect x="14.471" y="65.676" fill="#E6E7E8" width="0.614" height="0.579"/>
	</g>
	<rect x="12.172" y="63.51" fill="#EC1C24" width="1.167" height="1.213"/>
	<rect x="18.3" y="63.51" fill="#EC1C24" width="1.163" height="1.213"/>
	<rect x="25.012" y="63.51" fill="#EC1C24" width="1.163" height="1.213"/>
	<g>
		<polygon fill="#E6E7E8" points="26.175,65.707 26.872,65.707 26.872,66.887 28.353,66.887 28.353,65.676 31.111,65.676 
			31.111,67.553 29.893,67.553 29.893,66.979 30.531,66.979 30.531,66.313 29.021,66.313 29.021,67.585 26.175,67.585 		"/>
		<rect x="26.175" y="68.189" fill="#E6E7E8" width="7.638" height="0.696"/>
		<polygon fill="#E6E7E8" points="37.848,68.885 37.848,65.647 34.741,65.647 34.741,66.887 32.94,66.887 32.94,66.221 
			33.813,66.221 33.813,65.647 32.302,65.647 32.302,67.523 34.42,67.523 34.42,68.885 35.353,68.885 35.353,66.373 35.962,66.373 
			35.962,68.885 36.659,68.885 36.659,66.373 37.211,66.373 37.211,68.885 		"/>
		<rect x="27.307" y="65.676" fill="#E6E7E8" width="0.615" height="0.579"/>
	</g>
	<rect x="31.137" y="63.51" fill="#EC1C24" width="1.165" height="1.213"/>
	<rect x="37.848" y="63.51" fill="#EC1C24" width="1.166" height="1.213"/>
	<g>
		<polygon fill="#E6E7E8" points="39.015,65.707 39.711,65.707 39.711,66.887 41.192,66.887 41.192,65.676 43.95,65.676 
			43.95,67.553 42.731,67.553 42.731,66.979 43.37,66.979 43.37,66.313 41.858,66.313 41.858,67.585 39.015,67.585 		"/>
		<rect x="39.015" y="68.189" fill="#E6E7E8" width="7.634" height="0.696"/>
		<polygon fill="#E6E7E8" points="50.688,68.885 50.688,65.647 47.58,65.647 47.58,66.887 45.776,66.887 45.776,66.221 
			46.648,66.221 46.648,65.647 45.139,65.647 45.139,67.523 47.261,67.523 47.261,68.885 48.189,68.885 48.189,66.373 
			48.798,66.373 48.798,68.885 49.494,68.885 49.494,66.373 50.046,66.373 50.046,68.885 		"/>
		<rect x="40.146" y="65.676" fill="#E6E7E8" width="0.614" height="0.579"/>
	</g>
	<rect x="43.973" y="63.51" fill="#EC1C24" width="1.166" height="1.213"/>
	<rect x="50.688" y="63.51" fill="#EC1C24" width="1.163" height="1.213"/>
	<g>
		<polygon fill="#E6E7E8" points="51.85,65.707 52.547,65.707 52.547,66.887 54.028,66.887 54.028,65.676 56.787,65.676 
			56.787,67.553 55.569,67.553 55.569,66.979 56.207,66.979 56.207,66.313 54.697,66.313 54.697,67.585 51.85,67.585 		"/>
		<rect x="51.85" y="68.189" fill="#E6E7E8" width="7.638" height="0.696"/>
		<polygon fill="#E6E7E8" points="63.523,68.885 63.523,65.647 60.416,65.647 60.416,66.887 58.615,66.887 58.615,66.221 
			59.488,66.221 59.488,65.647 57.978,65.647 57.978,67.523 60.096,67.523 60.096,68.885 61.025,68.885 61.025,66.373 
			61.637,66.373 61.637,68.885 62.332,68.885 62.332,66.373 62.883,66.373 62.883,68.885 		"/>
		<rect x="52.982" y="65.676" fill="#E6E7E8" width="0.615" height="0.579"/>
	</g>
	<rect x="56.812" y="63.51" fill="#EC1C24" width="1.165" height="1.213"/>
	<rect x="63.523" y="63.51" fill="#EC1C24" width="1.163" height="1.213"/>
	<g>
		<polygon fill="#E6E7E8" points="64.687,65.707 65.384,65.707 65.384,66.887 66.865,66.887 66.865,65.676 69.626,65.676 
			69.626,67.553 68.406,67.553 68.406,66.979 69.042,66.979 69.042,66.313 67.533,66.313 67.533,67.585 64.687,67.585 		"/>
		<rect x="64.687" y="68.189" fill="#E6E7E8" width="7.637" height="0.696"/>
		<polygon fill="#E6E7E8" points="76.36,68.885 76.36,65.647 73.254,65.647 73.254,66.887 71.453,66.887 71.453,66.221 
			72.323,66.221 72.323,65.647 70.814,65.647 70.814,67.523 72.933,67.523 72.933,68.885 73.865,68.885 73.865,66.373 
			74.472,66.373 74.472,68.885 75.171,68.885 75.171,66.373 75.721,66.373 75.721,68.885 		"/>
		<rect x="65.818" y="65.676" fill="#E6E7E8" width="0.614" height="0.579"/>
	</g>
	<rect x="69.652" y="63.51" fill="#EC1C24" width="1.163" height="1.213"/>
	<rect x="76.36" y="63.51" fill="#EC1C24" width="1.165" height="1.213"/>
	<g>
		<polygon fill="#E6E7E8" points="77.526,65.707 78.223,65.707 78.223,66.887 79.704,66.887 79.704,65.676 82.462,65.676 
			82.462,67.553 81.241,67.553 81.241,66.979 81.881,66.979 81.881,66.313 80.37,66.313 80.37,67.585 77.526,67.585 		"/>
		<rect x="77.526" y="68.189" fill="#E6E7E8" width="7.638" height="0.696"/>
		<polygon fill="#E6E7E8" points="89.2,68.885 89.2,65.647 86.092,65.647 86.092,66.887 84.292,66.887 84.292,66.221 85.163,66.221 
			85.163,65.647 83.652,65.647 83.652,67.523 85.771,67.523 85.771,68.885 86.7,68.885 86.7,66.373 87.31,66.373 87.31,68.885 
			88.006,68.885 88.006,66.373 88.56,66.373 88.56,68.885 		"/>
		<rect x="78.658" y="65.676" fill="#E6E7E8" width="0.615" height="0.579"/>
	</g>
	<rect x="82.487" y="63.51" fill="#EC1C24" width="1.163" height="1.213"/>
	<rect x="89.2" y="63.51" fill="#EC1C24" width="1.163" height="1.213"/>
	<g>
		<polygon fill="#E6E7E8" points="90.362,65.707 91.059,65.707 91.059,66.887 92.54,66.887 92.54,65.676 95.298,65.676 
			95.298,67.553 94.079,67.553 94.079,66.979 94.718,66.979 94.718,66.313 93.209,66.313 93.209,67.585 90.362,67.585 		"/>
		<rect x="90.362" y="68.189" fill="#E6E7E8" width="7.637" height="0.696"/>
		<polygon fill="#E6E7E8" points="102.035,68.885 102.035,65.647 98.928,65.647 98.928,66.887 97.128,66.887 97.128,66.221 
			97.999,66.221 97.999,65.647 96.491,65.647 96.491,67.523 98.608,67.523 98.608,68.885 99.537,68.885 99.537,66.373 
			100.149,66.373 100.149,68.885 100.846,68.885 100.846,66.373 101.399,66.373 101.399,68.885 		"/>
		<rect x="91.494" y="65.676" fill="#E6E7E8" width="0.615" height="0.579"/>
	</g>
	<rect x="95.325" y="63.51" fill="#EC1C24" width="1.166" height="1.213"/>
	<rect x="102.035" y="63.51" fill="#EC1C24" width="1.163" height="1.213"/>
	<g>
		<polygon fill="#E6E7E8" points="103.198,65.707 103.896,65.707 103.896,66.887 105.379,66.887 105.379,65.676 108.135,65.676 
			108.135,67.553 106.917,67.553 106.917,66.979 107.554,66.979 107.554,66.313 106.045,66.313 106.045,67.585 103.198,67.585 		"/>
		<rect x="103.198" y="68.189" fill="#E6E7E8" width="7.638" height="0.696"/>
		<polygon fill="#E6E7E8" points="114.872,68.885 114.872,65.647 111.765,65.647 111.765,66.887 109.967,66.887 109.967,66.221 
			110.835,66.221 110.835,65.647 109.326,65.647 109.326,67.523 111.449,67.523 111.449,68.885 112.376,68.885 112.376,66.373 
			112.985,66.373 112.985,68.885 113.683,68.885 113.683,66.373 114.234,66.373 114.234,68.885 		"/>
		<rect x="104.331" y="65.676" fill="#E6E7E8" width="0.614" height="0.579"/>
	</g>
	<rect x="108.16" y="63.51" fill="#EC1C24" width="1.166" height="1.213"/>
	<rect x="114.872" y="63.51" fill="#EC1C24" width="1.165" height="1.213"/>
	<g>
		<polygon fill="#E6E7E8" points="116.037,65.707 116.735,65.707 116.735,66.887 118.215,66.887 118.215,65.676 120.974,65.676 
			120.974,67.553 119.753,67.553 119.753,66.979 120.394,66.979 120.394,66.313 118.881,66.313 118.881,67.585 116.037,67.585 		"/>
		<rect x="116.037" y="68.189" fill="#E6E7E8" width="7.638" height="0.696"/>
		<polygon fill="#E6E7E8" points="127.71,68.885 127.71,65.647 124.604,65.647 124.604,66.887 122.803,66.887 122.803,66.221 
			123.675,66.221 123.675,65.647 122.162,65.647 122.162,67.523 124.284,67.523 124.284,68.885 125.213,68.885 125.213,66.373 
			125.821,66.373 125.821,68.885 126.52,68.885 126.52,66.373 127.071,66.373 127.071,68.885 		"/>
		<rect x="117.167" y="65.676" fill="#E6E7E8" width="0.618" height="0.579"/>
	</g>
	<rect x="120.999" y="63.51" fill="#EC1C24" width="1.163" height="1.213"/>
	<rect x="127.743" y="63.51" fill="#EC1C24" width="1.165" height="1.213"/>
	
		<linearGradient id="SVGID_1_" gradientUnits="userSpaceOnUse" x1="-45.7541" y1="48.9653" x2="-40.8456" y2="48.9802" gradientTransform="matrix(1 0 0 -1 59 85.27)">
		<stop  offset="0" style="stop-color:#BBBDBF"/>
		<stop  offset="0.6254" style="stop-color:#D9DBDC"/>
		<stop  offset="1" style="stop-color:#E6E7E8"/>
	</linearGradient>
	<rect x="14.481" y="35.974" fill="url(#SVGID_1_)" width="0.616" height="0.578"/>
	
		<linearGradient id="SVGID_2_" gradientUnits="userSpaceOnUse" x1="69.9787" y1="51.5797" x2="63.6165" y2="51.5797" gradientTransform="matrix(1 0 0 -1 59 85.27)">
		<stop  offset="0" style="stop-color:#BBBDBF"/>
		<stop  offset="0.6254" style="stop-color:#D9DBDC"/>
		<stop  offset="1" style="stop-color:#E6E7E8"/>
	</linearGradient>
	<rect x="122.623" y="33.342" fill="url(#SVGID_2_)" width="1.064" height="0.696"/>
	
		<linearGradient id="SVGID_3_" gradientUnits="userSpaceOnUse" x1="69.9787" y1="16.7329" x2="63.6165" y2="16.7329" gradientTransform="matrix(1 0 0 -1 59 85.27)">
		<stop  offset="0" style="stop-color:#BBBDBF"/>
		<stop  offset="0.6254" style="stop-color:#D9DBDC"/>
		<stop  offset="1" style="stop-color:#E6E7E8"/>
	</linearGradient>
	<rect x="122.623" y="68.189" fill="url(#SVGID_3_)" width="1.064" height="0.696"/>
</g>
</svg>
