<?xml version="1.0" encoding="utf-8"?>
<!-- Generator: Adobe Illustrator 17.0.0, SVG Export Plug-In . SVG Version: 6.00 Build 0)  -->
<!DOCTYPE svg PUBLIC "-//W3C//DTD SVG 1.1//EN" "http://www.w3.org/Graphics/SVG/1.1/DTD/svg11.dtd">
<svg version="1.1" id="Layer_1" xmlns="http://www.w3.org/2000/svg" xmlns:xlink="http://www.w3.org/1999/xlink" x="0px" y="0px"
	 width="140.708px" height="101.77px" viewBox="0 0 140.708 101.77" enable-background="new 0 0 140.708 101.77"
	 xml:space="preserve">
<rect x="14.198" y="4.963" fill-rule="evenodd" clip-rule="evenodd" fill="#1BBC9B" width="62.723" height="75.809"/>
<path fill-rule="evenodd" clip-rule="evenodd" fill="#16A086" d="M14.198,4.963c-3.912,0.1-7.78,2.582-7.835,8.621
	c0,25.278,0,50.544,0,75.82c0-7.568,3.612-8.466,7.835-8.632C14.198,55.506,14.198,30.229,14.198,4.963L14.198,4.963z"/>
<path fill-rule="evenodd" clip-rule="evenodd" fill="#12826D" d="M76.921,88.851v-8.079c-20.911,0-41.823,0-62.723,0
	c-5.552,0.045-7.835,2.616-7.835,8.079s2.283,8.034,7.835,8.078c20.9,0,41.813,0,62.723,0V88.851z"/>
<path fill-rule="evenodd" clip-rule="evenodd" fill="#D5E5E5" d="M10.762,81.238c1.064-0.31,2.228-0.443,3.436-0.466h60.275V92.23
	h-63.71C10.762,88.563,10.762,84.906,10.762,81.238L10.762,81.238z"/>
<rect x="18.641" y="10.337" fill-rule="evenodd" clip-rule="evenodd" fill="#1BBC9B" width="53.836" height="65.049"/>
<path fill="#F9B32F" d="M18.641,9.805h53.836h0.532v0.532v65.049v0.543h-0.532H18.641h-0.532v-0.543V10.337V9.805H18.641z
	 M71.934,10.881h-52.75v63.974h52.75V10.881z"/>
<rect x="21.013" y="13.196" fill-rule="evenodd" clip-rule="evenodd" fill="#1BBC9B" width="49.094" height="59.342"/>
<path fill="#F9B32F" d="M21.013,12.665h49.094h0.531v0.532v59.342v0.532h-0.531H21.013h-0.532v-0.532V13.196v-0.532H21.013z
	 M69.574,13.728H21.545v58.268h48.029V13.728z"/>
<path fill="#F9B32F" d="M43.576,69.435c-2.737-1.739-4.921-4.023-6.195-6.482c-1.197-2.317-1.596-4.81-0.909-7.181
	c-1.595-1.451-2.892-3.302-3.801-5.43c-0.92-2.139-1.43-4.554-1.43-7.091c0-2.726,0.588-5.286,1.618-7.514
	c1.02-2.227,2.482-4.133,4.244-5.562c-0.964-3.048-0.787-5.73,0.244-8.013c1.152-2.548,3.38-4.587,6.262-6.084l0.243-0.122
	l0.255,0.122c2.882,1.496,5.109,3.535,6.261,6.084c1.031,2.283,1.208,4.964,0.244,8.013c1.761,1.43,3.224,3.335,4.244,5.562
	c1.031,2.228,1.618,4.788,1.618,7.514c0,2.537-0.521,4.953-1.43,7.091c-0.908,2.128-2.205,3.979-3.801,5.43
	c0.687,2.372,0.288,4.865-0.909,7.181c-1.274,2.46-3.458,4.743-6.195,6.482l-0.289,0.189L43.576,69.435z M38.334,62.465
	c1.141,2.217,3.08,4.278,5.518,5.884c2.449-1.607,4.389-3.668,5.541-5.884c1.097-2.127,1.452-4.399,0.788-6.538l-0.022-0.144v-0.211
	l-0.012-0.243l0.189-0.178c1.562-1.363,2.848-3.158,3.735-5.231c0.853-2.005,1.329-4.277,1.329-6.67
	c0-2.572-0.543-4.976-1.506-7.082c-0.998-2.161-2.438-4.001-4.178-5.342l-0.199-0.155l-0.012-0.254v-0.167l0.022-0.188
	c0.953-2.87,0.82-5.363-0.121-7.457c-1.02-2.261-2.982-4.079-5.553-5.452c-2.56,1.373-4.521,3.202-5.541,5.452
	c-0.942,2.094-1.075,4.587-0.122,7.457l0.022,0.188v0.167l-0.011,0.254l-0.2,0.155c-1.74,1.341-3.181,3.18-4.178,5.342
	c-0.964,2.105-1.507,4.51-1.507,7.082c0,2.393,0.477,4.665,1.33,6.67c0.886,2.073,2.172,3.868,3.735,5.231l0.188,0.178l-0.011,0.243
	v0.211l-0.022,0.144C36.871,58.066,37.226,60.338,38.334,62.465L38.334,62.465z"/>
<rect x="64.011" y="13.717" fill-rule="evenodd" clip-rule="evenodd" fill="#16A086" width="5.552" height="58.279"/>
<path fill-rule="evenodd" clip-rule="evenodd" fill="#16A086" d="M53.438,30.229v0.177c3.557,2.726,5.907,7.458,5.907,12.844
	c0,5.042-2.072,9.519-5.252,12.312v0.21c1.606,5.198-2.383,11.037-8.534,14.196c-0.587-0.31-1.152-0.632-1.707-0.975
	c5.165-3.292,8.289-8.522,6.838-13.221v-0.21c3.18-2.793,5.253-7.27,5.253-12.312c0-5.386-2.349-10.118-5.906-12.844v-0.177
	c2.095-6.306-0.853-10.927-6.184-13.675c0.544-0.288,1.119-0.543,1.707-0.787C51.92,18.372,55.755,23.27,53.438,30.229
	L53.438,30.229z"/>
<path fill="#F9B32F" d="M52.907,30.417v-0.167l0.023-0.188c1.053-3.147,0.786-5.84-0.422-8.056c-1.33-2.449-3.812-4.344-6.948-5.663
	c-0.177,0.078-0.365,0.156-0.543,0.233c2.449,1.441,4.323,3.313,5.353,5.585c1.031,2.283,1.208,4.964,0.244,8.013
	c1.761,1.43,3.224,3.335,4.244,5.562c1.031,2.228,1.618,4.788,1.618,7.514c0,2.537-0.521,4.953-1.43,7.091
	c-0.908,2.128-2.205,3.979-3.801,5.43c0.687,2.372,0.288,4.865-0.909,7.181c-1.164,2.25-3.081,4.343-5.486,6.017l0.111,0.067
	c0.21,0.11,0.41,0.221,0.598,0.332c2.959-1.574,5.375-3.779,6.849-6.205c1.396-2.328,1.906-4.865,1.175-7.237l-0.022-0.144v-0.211
	l-0.011-0.243l0.188-0.178c1.563-1.363,2.848-3.158,3.734-5.231c0.853-2.005,1.33-4.277,1.33-6.67c0-2.572-0.543-4.976-1.507-7.082
	c-0.997-2.161-2.438-4.001-4.178-5.342l-0.2-0.155L52.907,30.417z M54.015,30.174c1.762,1.43,3.225,3.335,4.244,5.562
	c1.031,2.228,1.618,4.788,1.618,7.514c0,2.537-0.521,4.953-1.43,7.091c-0.91,2.128-2.206,3.979-3.802,5.43
	c0.765,2.638,0.188,5.408-1.33,7.935c-1.607,2.671-4.267,5.064-7.513,6.727l-0.244,0.133l-0.243-0.133
	c-0.322-0.166-0.621-0.321-0.887-0.477c-0.266-0.155-0.554-0.332-0.853-0.521l-0.709-0.443l0.709-0.454
	c2.571-1.64,4.621-3.779,5.818-6.073c1.097-2.127,1.452-4.399,0.788-6.538l-0.022-0.144v-0.211l-0.012-0.243l0.189-0.178
	c1.562-1.363,2.848-3.158,3.735-5.231c0.853-2.005,1.329-4.277,1.329-6.67c0-2.572-0.543-4.976-1.506-7.082
	c-0.998-2.161-2.438-4.001-4.178-5.342l-0.199-0.155l-0.012-0.254v-0.167l0.022-0.188c0.953-2.87,0.82-5.363-0.121-7.457
	c-1.053-2.328-3.103-4.2-5.796-5.585L42.7,16.554l0.909-0.476c0.277-0.144,0.554-0.277,0.853-0.421
	c0.288-0.122,0.587-0.256,0.897-0.377h0.399c3.457,1.407,6.195,3.491,7.679,6.217C54.758,23.912,55.079,26.816,54.015,30.174
	L54.015,30.174z"/>
<path fill-rule="evenodd" clip-rule="evenodd" fill="#A5B5B5" d="M10.762,81.249c1.119-0.321,2.294-0.454,3.491-0.477h60.22v3.657
	c-20.047,0-40.095,0-60.142,0c-1.197-0.033-2.383,0.056-3.568,0.477C10.762,83.687,10.762,82.468,10.762,81.249L10.762,81.249z"/>
<g>
	<path fill="#62B800" d="M124.402,27.313c0,0,1.539-7.95-5.001-12.951c0,0-4.745-3.334-2.693-5.386
		c2.052-2.052,5.514,1.411,5.514,2.821c0,0,1.798-6.607,4.616-4.873c1.667,1.026,1.539,3.59,1.539,3.59s7.309-2.949,6.027,0.385
		c-1.282,3.334-5.258,3.847-5.258,3.847s-3.206,2.052-2.821,11.926L124.402,27.313z"/>
	<path fill="#FF7B00" d="M134.439,28.191c-1.575-2.459-5.746-3.766-9.683-3.766c-3.937,0-8.108,1.307-9.683,3.766
		c-1.575,2.46-1.908,5.233-1.102,23.212c1.102,24.595,10.786,43.733,10.786,43.733s9.683-19.138,10.785-43.733
		C136.347,33.424,136.013,30.651,134.439,28.191z"/>
	<g>
		<path fill="#F55A00" d="M119.305,52.865c0,0,8.853,1.871,16.102,0.903c0.047-0.697,0.086-1.399,0.119-2.105
			C133.286,52.603,126.456,53.695,119.305,52.865z"/>
		<path fill="#F55A00" d="M122.626,45.771c0,0,7.269,0.938,13.134,0.36c0.018-0.472,0.035-0.931,0.05-1.376
			C133.911,45.35,128.229,46.33,122.626,45.771z"/>
		<path fill="#F55A00" d="M119.647,40.041c0,0,7.508,2.075,16.274,0.872c0.017-0.769,0.029-1.489,0.036-2.159
			C133.387,39.772,128.529,40.756,119.647,40.041z"/>
		<path fill="#F55A00" d="M134.655,61.106c0.077-0.566,0.149-1.137,0.218-1.712c-3.004,0.747-5.48,1.179-16.021,0.414
			C118.852,59.808,124.36,61.842,134.655,61.106z"/>
		<path fill="#F55A00" d="M124.085,65.141c0,0,4.36,1.294,9.784,0.952c0.074-0.408,0.146-0.818,0.216-1.232
			C132.103,65.338,128.967,65.628,124.085,65.141z"/>
	</g>
</g>
<g>
	<path fill="#665009" d="M107.887,55.404c0,0,0.664-6.968,9.788-10.286c0,0,1.659-2.157-2.488-5.807c0,0-7.632,4.645-8.461,16.093
		H107.887z"/>
	<path fill="#9CDE00" d="M108.125,48.766c0,0,0.839-13.768-15.674-12.368C92.452,36.398,94.272,52.738,108.125,48.766z"/>
	<path fill="#E63A00" d="M89.513,55.569c7.976-5.737,17.212-1.119,17.212-1.119s9.236-4.618,17.212,1.119
		c7.976,5.737,6.857,16.652,3.359,24.489c-3.498,7.836-10.186,13.264-13.315,13.264c-3.427,0.001-4.037-2.349-7.256-2.349
		c-3.219,0-3.829,2.349-7.256,2.349c-3.129,0-9.816-5.427-13.315-13.264C82.656,72.221,81.537,61.306,89.513,55.569z"/>
	<path fill="#FFFFFF" d="M117.261,55.926c0,0,17.179,6.163,0,27.717C117.261,83.643,127.206,68.063,117.261,55.926z"/>
	<g>
		<rect x="59.944" y="78.376" fill="#DBCF21" width="20.277" height="17.244"/>
		<ellipse fill="#A39A19" cx="70.083" cy="78.376" rx="10.138" ry="1.899"/>
		<path fill="#FFE433" d="M59.944,96.995c0,0,6.097,4.008,22.476,0.646c16.818-3.453,24.682-0.646,24.682-0.646V80.411
			c-7.591-5.461-38.578,3.224-47.157-1.899V96.995z"/>
		<g>
			<path fill="#474747" d="M76.742,83.614c0.199,0,0.359-0.161,0.359-0.359V79.89c-0.24,0.017-0.48,0.034-0.719,0.05v3.314
				C76.383,83.453,76.543,83.614,76.742,83.614z"/>
			<path fill="#474747" d="M79.501,79.707v5.6c0,0.298,0.242,0.539,0.539,0.539c0.298,0,0.539-0.242,0.539-0.539v-5.688
				C80.219,79.649,79.86,79.677,79.501,79.707z"/>
			<path fill="#474747" d="M70.672,83.614c0.199,0,0.359-0.161,0.359-0.359v-3.068c-0.242,0.005-0.481,0.008-0.719,0.01v3.058
				C70.312,83.453,70.473,83.614,70.672,83.614z"/>
			<path fill="#474747" d="M73.618,83.614c0.199,0,0.359-0.161,0.359-0.359v-3.173c-0.24,0.012-0.482,0.026-0.719,0.036v3.137
				C73.258,83.453,73.419,83.614,73.618,83.614z"/>
			<path fill="#474747" d="M98.702,82.895c0.199,0,0.359-0.161,0.359-0.359v-3.974c-0.235-0.008-0.478-0.012-0.719-0.017v3.991
				C98.342,82.734,98.503,82.895,98.702,82.895z"/>
			<path fill="#474747" d="M104.054,79.151v5.173c0,0.298,0.242,0.539,0.539,0.539c0.298,0,0.539-0.242,0.539-0.539v-4.867
				C104.793,79.343,104.433,79.241,104.054,79.151z"/>
			<path fill="#474747" d="M101.826,82.895c0.199,0,0.359-0.161,0.359-0.359v-3.727c-0.233-0.031-0.476-0.056-0.719-0.082v3.809
				C101.466,82.734,101.627,82.895,101.826,82.895z"/>
			<path fill="#474747" d="M64.959,83.614c0.199,0,0.359-0.161,0.359-0.359v-3.26c-0.247-0.027-0.482-0.06-0.719-0.092v3.352
				C64.599,83.453,64.76,83.614,64.959,83.614z"/>
			<path fill="#474747" d="M95.396,78.559v3.976c0,0.199,0.161,0.359,0.359,0.359c0.199,0,0.359-0.161,0.359-0.359v-3.996
				C95.879,78.543,95.636,78.552,95.396,78.559z"/>
			<path fill="#474747" d="M62.013,83.614c0.199,0,0.359-0.161,0.359-0.359v-3.785c-0.246-0.065-0.49-0.131-0.719-0.207v3.992
				C61.654,83.453,61.814,83.614,62.013,83.614z"/>
			<path fill="#474747" d="M83.343,83.614c0.199,0,0.359-0.161,0.359-0.359v-3.903c-0.24,0.021-0.479,0.041-0.719,0.062v3.841
				C82.983,83.453,83.144,83.614,83.343,83.614z"/>
			<path fill="#474747" d="M66.83,80.121v5.186c0,0.298,0.242,0.539,0.539,0.539c0.298,0,0.539-0.242,0.539-0.539v-5.14
				C67.545,80.154,67.18,80.142,66.83,80.121z"/>
			<path fill="#474747" d="M92.453,85.127c0.298,0,0.539-0.242,0.539-0.539v-5.937c-0.356,0.018-0.717,0.04-1.078,0.062v5.875
				C91.914,84.886,92.155,85.127,92.453,85.127z"/>
			<path fill="#474747" d="M86.289,83.614c0.199,0,0.359-0.161,0.359-0.359v-4.155c-0.24,0.02-0.479,0.04-0.719,0.06v4.095
				C85.929,83.453,86.09,83.614,86.289,83.614z"/>
			<path fill="#474747" d="M89.413,83.614c0.199,0,0.36-0.161,0.36-0.359v-4.4c-0.239,0.017-0.478,0.034-0.719,0.053v4.347
				C89.054,83.453,89.214,83.614,89.413,83.614z"/>
		</g>
	</g>
</g>
</svg>
