<?xml version="1.0" encoding="utf-8"?>
<!-- Generator: Adobe Illustrator 17.0.0, SVG Export Plug-In . SVG Version: 6.00 Build 0)  -->
<!DOCTYPE svg PUBLIC "-//W3C//DTD SVG 1.1//EN" "http://www.w3.org/Graphics/SVG/1.1/DTD/svg11.dtd">
<svg version="1.1" id="Layer_1" xmlns="http://www.w3.org/2000/svg" xmlns:xlink="http://www.w3.org/1999/xlink" x="0px" y="0px"
	 width="140.708px" height="101.77px" viewBox="0 0 140.708 101.77" enable-background="new 0 0 140.708 101.77"
	 xml:space="preserve">
<g>
	<path fill="#0089CD" d="M128.842,87.495c0,2.951-2.392,5.347-5.342,5.347H19.383c-2.95,0-5.343-2.395-5.343-5.347V17.813
		c0-2.95,2.393-5.347,5.343-5.347H123.5c2.95,0,5.342,2.395,5.342,5.347L128.842,87.495L128.842,87.495z"/>
	<path fill="#E6E7E8" d="M128.842,17.813c0-1.363-0.516-2.606-1.357-3.551L14.04,79.802v7.693c0,2.25,1.393,4.173,3.36,4.961
		L128.842,28.07V17.813z"/>
	<rect x="61.759" y="12.466" fill="#E6E7E8" width="19.365" height="80.376"/>
	<rect x="14.04" y="42.964" fill="#E6E7E8" width="114.802" height="19.378"/>
	<path fill="#E6E7E8" d="M128.842,87.547v-9.066L16.335,13.479c-1.386,0.965-2.295,2.569-2.295,4.387v8.883L126.69,91.83
		C127.994,90.854,128.842,89.3,128.842,87.547z"/>
	<polygon fill="#DA2128" points="96.708,62.522 88.704,62.522 87.805,62.522 128.842,86.558 128.842,81.088 	"/>
	<polygon fill="#DA2128" points="14.04,19.14 14.04,24.664 46.025,43.143 55.587,43.143 	"/>
	<path fill="#DA2128" d="M128.842,21.69v-3.877c0-0.527-0.079-1.038-0.222-1.519L82.458,42.964h9.561L128.842,21.69z"/>
	<path fill="#DA2128" d="M15.224,91.027l46.667-27.019h-9.564L14.068,86.24v1.468C14.068,88.965,14.501,90.116,15.224,91.027z"/>
	<rect x="64.285" y="12.466" fill="#DA2128" width="14.314" height="80.376"/>
	<rect x="14.04" y="45.492" fill="#DA2128" width="114.802" height="14.325"/>
</g>
</svg>
