<?xml version="1.0" encoding="utf-8"?>
<!-- Generator: Adobe Illustrator 17.0.0, SVG Export Plug-In . SVG Version: 6.00 Build 0)  -->
<!DOCTYPE svg PUBLIC "-//W3C//DTD SVG 1.1//EN" "http://www.w3.org/Graphics/SVG/1.1/DTD/svg11.dtd">
<svg version="1.1" id="Layer_1" xmlns="http://www.w3.org/2000/svg" xmlns:xlink="http://www.w3.org/1999/xlink" x="0px" y="0px"
	 width="140.708px" height="101.77px" viewBox="0 0 140.708 101.77" enable-background="new 0 0 140.708 101.77"
	 xml:space="preserve">
<polygon fill="#FFCA28" points="124.274,54.572 124.274,73.896 131.473,73.896 131.473,76.358 74.828,76.358 74.828,52.109 
	131.473,52.109 131.473,54.572 "/>
<rect x="18.182" y="52.109" fill="#FFB300" width="56.645" height="24.249"/>
<ellipse fill="#FFB300" cx="18.182" cy="64.234" rx="5.36" ry="12.125"/>
<ellipse fill="#FFCA28" cx="74.638" cy="64.234" rx="5.36" ry="12.125"/>
<path fill="#F57C00" d="M64.398,76.358c-2.96,0-5.36-5.428-5.36-12.125s2.4-12.125,5.36-12.125h5.36c-2.96,0-5.36,5.428-5.36,12.125
	s2.4,12.125,5.36,12.125H64.398z"/>
<ellipse fill="#FAFAFA" cx="77.29" cy="64.234" rx="4.271" ry="9.662"/>
<path fill="#FAFAFA" d="M129.427,73.896H77.29V54.572h52.136c-1.131,0-2.048,4.325-2.048,9.662S128.296,73.896,129.427,73.896z"/>
<ellipse fill="#FFCA28" cx="131.473" cy="53.34" rx="0.853" ry="1.231"/>
<ellipse fill="#FFCA28" cx="131.473" cy="77.127" rx="0.853" ry="1.231"/>
<polygon fill="#EF5350" points="88.698,70.107 85.13,66.886 81.562,70.107 81.562,58.929 88.698,58.929 "/>
<polygon fill="#EF5350" points="114.211,30.322 114.211,49.646 121.41,49.646 121.41,52.109 64.765,52.109 64.765,27.86 
	121.41,27.86 121.41,30.322 "/>
<rect x="8.12" y="27.86" fill="#E53935" width="56.645" height="24.249"/>
<ellipse fill="#E53935" cx="8.12" cy="39.984" rx="5.36" ry="12.125"/>
<ellipse fill="#EF5350" cx="64.576" cy="39.984" rx="5.36" ry="12.125"/>
<ellipse fill="#FAFAFA" cx="67.228" cy="39.984" rx="4.271" ry="9.662"/>
<path fill="#FAFAFA" d="M119.364,49.646H67.228V30.322h52.136c-1.131,0-2.048,4.325-2.048,9.662S118.233,49.646,119.364,49.646z"/>
<ellipse fill="#EF5350" cx="121.41" cy="29.091" rx="0.853" ry="1.231"/>
<ellipse fill="#EF5350" cx="121.41" cy="50.878" rx="0.853" ry="1.231"/>
<polygon fill="#66BB6A" points="131.072,6.073 131.072,25.397 138.271,25.397 138.271,27.86 81.626,27.86 81.626,3.61 138.271,3.61 
	138.271,6.073 "/>
<rect x="24.981" y="3.61" fill="#43A047" width="56.645" height="24.249"/>
<ellipse fill="#43A047" cx="24.981" cy="15.735" rx="5.36" ry="12.125"/>
<ellipse fill="#66BB6A" cx="81.437" cy="15.735" rx="5.36" ry="12.125"/>
<ellipse fill="#FAFAFA" cx="84.089" cy="15.735" rx="4.271" ry="9.662"/>
<path fill="#FAFAFA" d="M136.225,25.397H84.089V6.073h52.136c-1.131,0-2.048,4.325-2.048,9.662S135.094,25.397,136.225,25.397z"/>
<ellipse fill="#66BB6A" cx="138.271" cy="4.841" rx="0.853" ry="1.231"/>
<ellipse fill="#66BB6A" cx="138.271" cy="26.628" rx="0.853" ry="1.231"/>
<path fill="#E0E0E0" d="M30.341,27.86c-2.96,0-5.36-5.428-5.36-12.125s2.4-12.125,5.36-12.125h2.68c-2.96,0-5.36,5.428-5.36,12.125
	s2.4,12.125,5.36,12.125H30.341z"/>
<path fill="#E0E0E0" d="M35.701,27.86c-2.96,0-5.36-5.428-5.36-12.125s2.4-12.125,5.36-12.125h2.68c-2.96,0-5.36,5.428-5.36,12.125
	s2.4,12.125,5.36,12.125H35.701z"/>
<polygon fill="#FFA726" points="126.091,20.881 123.444,19.461 120.796,20.881 120.796,13.682 126.091,13.682 "/>
<polygon fill="#5880D9" points="131.072,78.358 131.072,97.682 138.271,97.682 138.271,100.145 81.626,100.145 81.626,75.896 
	138.271,75.896 138.271,78.358 "/>
<rect x="24.981" y="75.896" fill="#5880D9" width="56.645" height="24.249"/>
<ellipse fill="#5880D9" cx="24.981" cy="88.02" rx="5.36" ry="12.125"/>
<ellipse fill="#5880D9" cx="81.437" cy="88.02" rx="5.36" ry="12.125"/>
<ellipse fill="#FAFAFA" cx="84.089" cy="88.02" rx="4.271" ry="9.662"/>
<path fill="#FAFAFA" d="M136.225,97.682H84.089V78.358h52.136c-1.131,0-2.048,4.325-2.048,9.662S135.094,97.682,136.225,97.682z"/>
<ellipse fill="#5880D9" cx="138.271" cy="77.127" rx="0.853" ry="1.231"/>
<path fill="#E0E0E0" d="M30.341,100.145c-2.96,0-5.36-5.428-5.36-12.125s2.4-12.125,5.36-12.125h2.68
	c-2.96,0-5.36,5.428-5.36,12.125s2.4,12.125,5.36,12.125H30.341z"/>
<path fill="#E0E0E0" d="M35.701,100.145c-2.96,0-5.36-5.428-5.36-12.125s2.4-12.125,5.36-12.125h2.68
	c-2.96,0-5.36,5.428-5.36,12.125s2.4,12.125,5.36,12.125H35.701z"/>
<polygon fill="#58D4D9" points="126.091,93.167 123.444,91.746 120.796,93.167 120.796,85.968 126.091,85.968 "/>
<path opacity="0.1" fill="#424242" d="M12.942,61.687h56.456c0.517-5.473,2.667-9.578,5.241-9.578H18.182
	C15.608,52.109,13.459,56.214,12.942,61.687z"/>
<path fill="#FFB300" d="M74.827,52.109h-0.189c0.064,0,0.126,0.006,0.189,0.011V52.109z"/>
<path fill="#FFB300" d="M74.827,78.348c-0.063,0.005-0.126,0.011-0.189,0.011h0.189V78.348z"/>
<path opacity="0.1" fill="#424242" d="M121.41,27.86H76.077v2.463h45.334c0.471,0,0.853-0.551,0.853-1.231
	C122.263,28.411,121.881,27.86,121.41,27.86z"/>
<path opacity="0.1" fill="#424242" d="M93.088,30.322h-13.09h-1.099c-0.822,0-1.53,2.285-1.856,5.582h2.956h13.09h24.42
	c0.326-3.297,1.035-5.582,1.856-5.582H93.088z"/>
</svg>
