<?xml version="1.0" encoding="utf-8"?>
<!-- Generator: Adobe Illustrator 17.0.0, SVG Export Plug-In . SVG Version: 6.00 Build 0)  -->
<!DOCTYPE svg PUBLIC "-//W3C//DTD SVG 1.1//EN" "http://www.w3.org/Graphics/SVG/1.1/DTD/svg11.dtd">
<svg version="1.1" id="Layer_1" xmlns="http://www.w3.org/2000/svg" xmlns:xlink="http://www.w3.org/1999/xlink" x="0px" y="0px"
	 width="140.708px" height="101.77px" viewBox="0 0 140.708 101.77" enable-background="new 0 0 140.708 101.77"
	 xml:space="preserve">
<g>
	<g>
		<path fill="#A37D57" d="M97.46,17.242c0,0,27.458,0.379,28.778,0.937c0,0-2.09,26.196-2.278,26.692
			c-0.188,0.496-25.01-0.303-25.01-0.303S97.147,18.321,97.46,17.242z"/>
		<path fill="#DBB88E" d="M126.238,18.179c0,0,4.725,3.134,5.212,3.742l-2.471,23.409l-5.428-0.372l2.66-26.442"/>
		<path fill="#D1B386" d="M109.389,17.483c0,0,0.08,8.224,0.073,8.396c-0.007,0.172,4.61,0.19,4.61,0.19l0.854-8.478L109.389,17.483
			z"/>
	</g>
	<g>
		<g>
			<path fill="#B6936B" d="M45.891,9.806c0,0,2.751,35.559,3.466,36.546c0,0,41.494-1.256,41.809-1.324s0.826-39.347,0.843-39.766
				C92.026,4.843,52.489,8.635,45.891,9.806z"/>
			<g>
				<path fill="#846144" d="M77.041,20.177l-0.028,0c-0.569-0.023-0.704-0.029-1.386-10.584l-0.032-0.499l0.499-0.035
					c0.327-0.024,8.016-0.569,9.184-0.569c0.123,0,0.189,0.005,0.252,0.021c0.462,0.113,0.695,0.169,0.725,10.515l0.001,0.467
					l-0.466,0.036C84.935,19.594,77.426,20.177,77.041,20.177z M76.664,10.027c0.211,3.198,0.556,7.821,0.751,9.122
					c1.212-0.08,5-0.369,7.831-0.588c-0.017-3.797-0.099-7.884-0.23-9.059C83.534,9.55,78.309,9.911,76.664,10.027z"/>
			</g>
		</g>
		<g>
			<path fill="#DBB88E" d="M105.218,45.272c0,0,3.704-34.778,3.738-35.616c0,0-14.24-4.487-16.948-4.395
				c0,0-1.106,37.699-0.843,39.766C91.165,45.028,103.851,45.342,105.218,45.272z"/>
			<path fill="#F4D7AE" d="M100.068,7.022c0,0-0.776,11.87-0.501,12.133l3.159,0.571l1.29-11.572
				C104.016,8.155,100.746,7.209,100.068,7.022z"/>
			<g>
				<path fill="#B6936B" d="M105.297,23.045c0.036-0.88-1.894-1.401-5.035-1.593c-1.487-0.091-2.408-0.13-2.976-0.001
					c0.509,0.001,1.148,0.035,1.954,0.084c3.141,0.193,5.072,0.713,5.035,1.593c-0.025,0.609-0.531,0.903-1.226,1.03
					C104.221,24.152,105.26,23.926,105.297,23.045z"/>
				<path fill="#442E1D" d="M104.275,23.129c0.036-0.88-1.894-1.401-5.035-1.593c-0.806-0.049-1.445-0.084-1.954-0.084
					c-0.632,0.144-0.826,0.497-0.854,1.228c-0.025,0.642,2.533,1.175,4.04,1.3c0.662,0.055,1.66,0.184,2.578,0.179
					C103.744,24.032,104.25,23.737,104.275,23.129z"/>
			</g>
		</g>
	</g>
	<g>
		<path fill="#B6936B" d="M94.515,44.384c0,0,39.377-0.102,40.6,0.784c0,0-5.835,47.736-6.186,50.158c0,0-33.741,1.697-36.235,1.08
			C92.694,96.405,93.579,46.923,94.515,44.384z"/>
		<path fill="#8C694D" d="M39.817,46.097c0,0,50.355-1.709,54.698-1.713c0,0-1.132,47.526-1.821,52.021
			c0,0-41.676,0.08-46.018-0.512C46.676,95.893,40.365,50.15,39.817,46.097z"/>
		<polygon fill="#D1B386" points="69.202,45.123 69.641,62.947 61.231,63.271 59.093,45.453 		"/>
		<polygon fill="#8C694D" points="117.485,47.118 131.065,47.679 129.979,57.5 117.078,56.967 		"/>
	</g>
</g>
<g>
	<path fill-rule="evenodd" clip-rule="evenodd" fill="#22A78E" d="M75.589,96.528H8.306c-1.033,0-1.871-0.838-1.871-1.871v-3.586
		c0-1.033,0.838-1.871,1.871-1.871h67.283c1.033,0,1.871,0.838,1.871,1.871v3.586C77.46,95.691,76.622,96.528,75.589,96.528z"/>
	<path fill-rule="evenodd" clip-rule="evenodd" fill="#2FB99F" d="M75.589,94.891H8.306c-1.033,0-1.871-0.838-1.871-1.871V14.608
		c0-1.033,0.838-1.871,1.871-1.871h67.283c1.033,0,1.871,0.838,1.871,1.871v78.412C77.46,94.054,76.622,94.891,75.589,94.891z"/>
	<g>
		<path fill-rule="evenodd" clip-rule="evenodd" fill="#8C9EA4" d="M70.081,91.998H13.814c-0.84,0-1.521-0.681-1.521-1.521v-3.69
			c0-0.84,0.681-1.521,1.521-1.521h56.266c0.84,0,1.521,0.681,1.521,1.521v3.69C71.601,91.317,70.921,91.998,70.081,91.998z"/>
		<path fill-rule="evenodd" clip-rule="evenodd" fill="#F7F6F6" d="M70.081,90.784H13.814c-0.84,0-1.521-0.681-1.521-1.521V19.016
			c0-0.84,0.681-1.521,1.521-1.521h56.266c0.84,0,1.521,0.681,1.521,1.521v70.248C71.601,90.103,70.921,90.784,70.081,90.784z"/>
		<g>
			<g>
				<g>
					<circle fill-rule="evenodd" clip-rule="evenodd" fill="#E4E9EB" cx="22.813" cy="33.267" r="4.496"/>
					<path fill="#22A78E" d="M24.469,31.898l-1.977,1.977l-1.155-1.155c-0.095-0.095-0.249-0.095-0.344,0l-0.43,0.43
						c-0.095,0.094-0.095,0.249,0,0.344l1.327,1.327l0.43,0.43c0.095,0.095,0.249,0.094,0.344,0l0.43-0.43l2.149-2.148
						c0.094-0.095,0.094-0.249,0-0.344l-0.43-0.43C24.718,31.804,24.564,31.804,24.469,31.898z"/>
				</g>
				<rect x="32.777" y="31.521" fill="#8C9EA4" width="32.8" height="3.493"/>
			</g>
			<g>
				<g>
					<circle fill-rule="evenodd" clip-rule="evenodd" fill="#E4E9EB" cx="22.813" cy="48.487" r="4.496"/>
					<path fill="#22A78E" d="M24.469,47.118l-1.977,1.977l-1.155-1.155c-0.095-0.095-0.249-0.095-0.344,0l-0.43,0.43
						c-0.095,0.094-0.095,0.249,0,0.344l1.327,1.327l0.43,0.43c0.095,0.094,0.249,0.094,0.344,0l0.43-0.43l2.149-2.148
						c0.094-0.095,0.094-0.249,0-0.344l-0.43-0.43C24.718,47.023,24.564,47.023,24.469,47.118z"/>
				</g>
				<rect x="32.777" y="46.74" fill="#8C9EA4" width="32.8" height="3.493"/>
			</g>
			<g>
				<g>
					<circle fill-rule="evenodd" clip-rule="evenodd" fill="#E4E9EB" cx="22.813" cy="63.707" r="4.496"/>
					<path fill="#22A78E" d="M24.469,62.338l-1.977,1.977l-1.155-1.155c-0.095-0.095-0.249-0.095-0.344,0l-0.43,0.43
						c-0.095,0.094-0.095,0.249,0,0.344l1.327,1.327l0.43,0.43c0.095,0.094,0.249,0.094,0.344,0l0.43-0.43l2.149-2.148
						c0.094-0.095,0.094-0.249,0-0.344l-0.43-0.43C24.718,62.243,24.564,62.243,24.469,62.338z"/>
				</g>
				<rect x="32.777" y="61.96" fill="#8C9EA4" width="32.8" height="3.493"/>
			</g>
			<g>
				<g>
					<circle fill-rule="evenodd" clip-rule="evenodd" fill="#E4E9EB" cx="22.813" cy="78.927" r="4.496"/>
					<path fill="#22A78E" d="M24.469,77.557l-1.977,1.977l-1.155-1.155c-0.095-0.095-0.249-0.095-0.344,0l-0.43,0.43
						c-0.095,0.094-0.095,0.249,0,0.344l1.327,1.327l0.43,0.43c0.095,0.095,0.249,0.094,0.344,0l0.43-0.43l2.149-2.148
						c0.094-0.095,0.094-0.249,0-0.344l-0.43-0.43C24.718,77.463,24.564,77.463,24.469,77.557z"/>
				</g>
				<rect x="32.777" y="77.18" fill="#8C9EA4" width="32.8" height="3.493"/>
			</g>
		</g>
	</g>
	<g>
		<path fill-rule="evenodd" clip-rule="evenodd" fill="#8C9EA4" d="M61.122,17.655H22.773v-5.609c0-0.481,0.39-0.872,0.872-0.872
			H60.25c0.481,0,0.872,0.39,0.872,0.872V17.655z"/>
		<rect x="22.773" y="17.655" fill-rule="evenodd" clip-rule="evenodd" fill="#7B888D" width="38.349" height="2.491"/>
		<g>
			<circle fill-rule="evenodd" clip-rule="evenodd" fill="#8C9EA4" cx="41.948" cy="10.835" r="5.561"/>
			<circle fill-rule="evenodd" clip-rule="evenodd" fill="#FFFFFF" cx="41.948" cy="10.835" r="3.05"/>
		</g>
	</g>
</g>
</svg>
