<?xml version="1.0" encoding="utf-8"?>
<!-- Generator: Adobe Illustrator 17.0.0, SVG Export Plug-In . SVG Version: 6.00 Build 0)  -->
<!DOCTYPE svg PUBLIC "-//W3C//DTD SVG 1.1//EN" "http://www.w3.org/Graphics/SVG/1.1/DTD/svg11.dtd">
<svg version="1.1" id="Capa_1" xmlns="http://www.w3.org/2000/svg" xmlns:xlink="http://www.w3.org/1999/xlink" x="0px" y="0px"
	 width="512px" height="512px" viewBox="0 0 512 512" enable-background="new 0 0 512 512" xml:space="preserve">
<path fill-rule="evenodd" clip-rule="evenodd" fill="#FFFFFF" stroke="#BCBEC0" stroke-width="15" stroke-miterlimit="10" d="
	M30.578,463.059c0,0-8.069-66.37,6.564-104.64c14.621-38.283,24.379-46.804,69.428-53.208c45.058-6.411,69.867-24.111,76.197-29.935
	c6.336-5.836,16.518-12.081,22.622-14.821c0,0-1.756-45.532-23.953-72.187c0,0-8.474-3.141-9.931-9.205
	c-1.457-6.056-5.812-32.723,0.489-43.875c0,0,4.127-5.265,3.682-9.045c-0.449-3.788-5.284-37.349,24.69-64.456
	c0,0,8.854-14.248-12.595-16.625c0,0,9.981-5.198,24.806,2.35c0,0-5.989-9.028,3.457-13.837c0,0-4.036,14.502,11.707,9.715
	c15.736-4.825,38.132-9.077,53.01-3.552c14.881,5.52,18.457,13.199,37.422,14.285c18.977,1.084,25.78,25.3,26.279,34.444
	c0.491,9.131-0.476,46.241,2.998,51.241c3.48,4.977,4.656,8.629,3.48,17.532c-1.159,8.903-8.296,31.99-12.302,32.379
	c-3.982,0.343-7.372,3.741-7.616,5.202c-0.244,1.445-11.619,33.341-11.424,44.63c0.19,11.294,0.439,24.201,9.234,26.828
	c8.813,2.635,20.229,18.554,27.284,25.618c7.064,7.064,48.559,16.65,67.355,25.454c18.797,8.813,26.448,7.497,37.433,44.245
	c10.983,36.774,19.674,74.537,19.796,101.462H30.578z"/>
<rect x="215" y="360.128" fill-rule="evenodd" clip-rule="evenodd" fill="#BCBEC0" width="82" height="15.744"/>
<rect x="248.128" y="327" fill-rule="evenodd" clip-rule="evenodd" fill="#BCBEC0" width="15.744" height="82"/>
</svg>
