<?xml version="1.0" encoding="utf-8"?>
<!-- Generator: Adobe Illustrator 17.0.0, SVG Export Plug-In . SVG Version: 6.00 Build 0)  -->
<!DOCTYPE svg PUBLIC "-//W3C//DTD SVG 1.1//EN" "http://www.w3.org/Graphics/SVG/1.1/DTD/svg11.dtd">
<svg version="1.1" id="Layer_1" xmlns="http://www.w3.org/2000/svg" xmlns:xlink="http://www.w3.org/1999/xlink" x="0px" y="0px"
	 width="140.708px" height="101.77px" viewBox="0 0 140.708 101.77" enable-background="new 0 0 140.708 101.77"
	 xml:space="preserve">
<g id="Sun_2_">
	<g id="Sun_1_">
		<path fill="#F9A040" d="M34.714,23.278c0,0,3.938-8.346,2.015-14.499l8.881,11.305c0,0,7.862-6.837,7.862-9.742l1.026,10.426
			c0,0,5.64-5.341,12.99-6.495c-1.068,5.512-1.367,10.939-1.367,10.939l13.203-6.025L75.692,32.22l12.99-2.008l-10.939,9.016
			l16.067,3.931l-11.964,8.461l9.409,8.28l-10.093,2.231c0,0,5.982,12.819,5.982,16.237c0,0-12.734-2.649-14.272-4.187
			c1.197,4.016,4.083,14.955,4.083,14.955L65.95,82.641l-5.64,8.546l-9.23-7.392l-5.983,10.981L37.15,83.282l-11.024,7.221
			l1.731-14.207l-14.892,2.585l6.495-10.768L4.248,65.72l10.938-9.572L1.342,52.089l15.041-7.392c0,0-7.862-5.811-9.059-11.622
			c3.76,1.88,15.895-2.051,15.895-2.051s-4.123-10.533-1.495-15.511C26.403,18.76,34.714,23.278,34.714,23.278z"/>
		<circle fill="#FEE03E" cx="48.207" cy="52.026" r="28.747"/>
		<path opacity="0.1" fill="#010101" d="M66.114,29.538c1.799,3.756,2.807,7.962,2.807,12.404c0,15.876-12.87,28.747-28.747,28.747
			c-6.771,0-12.995-2.342-17.907-6.259c4.631,9.667,14.506,16.343,25.941,16.343c15.877,0,28.747-12.871,28.747-28.747
			C76.955,42.92,72.72,34.805,66.114,29.538z"/>
	</g>
	<g id="Star_3_">
		<g>
			<path fill="#FFFFFF" d="M7.706,91.427c-0.015,2.144-1.765,3.869-3.909,3.854c2.144,0.015,3.869,1.766,3.854,3.909
				c0.015-2.143,1.766-3.869,3.909-3.854C9.416,95.321,7.691,93.571,7.706,91.427z"/>
		</g>
		<g>
			<path fill="#FFFFFF" d="M94.903,67.396c-0.015,2.144-1.766,3.869-3.909,3.854c2.144,0.015,3.869,1.765,3.854,3.909
				c0.015-2.144,1.766-3.869,3.909-3.854C96.613,71.29,94.888,69.54,94.903,67.396z"/>
		</g>
		<g>
			<path fill="#FFFFFF" d="M67.261,4.898c-0.015,2.144-1.766,3.869-3.909,3.854c2.144,0.015,3.87,1.765,3.854,3.909
				c0.016-2.143,1.766-3.869,3.909-3.854C68.971,8.792,67.246,7.042,67.261,4.898z"/>
		</g>
	</g>
</g>
<g id="Earth_2_">
	<g id="Star_8_">
		<g>
			<path fill="#FFFFFF" d="M78.128,4.044c-2.457,0-4.447-1.991-4.447-4.447c0,2.456-1.992,4.447-4.447,4.447
				c2.456,0,4.447,1.991,4.447,4.447C73.68,6.035,75.671,4.044,78.128,4.044z"/>
		</g>
		<g>
			<path fill="#FFFFFF" d="M43.031,51.115c-2.457,0-4.448-1.991-4.448-4.447c0,2.456-1.991,4.447-4.447,4.447
				c2.456,0,4.447,1.991,4.447,4.448C38.583,53.107,40.574,51.115,43.031,51.115z"/>
		</g>
		<g>
			<path fill="#FFFFFF" d="M94.853-3.014c-3.898,0-7.058-3.16-7.058-7.058c0,3.898-3.16,7.058-7.058,7.058
				c3.898,0,7.058,3.16,7.058,7.058C87.795,0.146,90.955-3.014,94.853-3.014z"/>
		</g>
		<g>
			<path fill="#FFFFFF" d="M146.944,28.34c-3.311,0-5.995-2.684-5.995-5.994c0,3.311-2.684,5.994-5.994,5.994
				c3.311,0,5.994,2.684,5.994,5.994C140.949,31.024,143.633,28.34,146.944,28.34z"/>
		</g>
	</g>
	<g id="Earth_1_">
		<circle fill="#46BBEB" cx="95.154" cy="53.34" r="42.208"/>
		<g>
			<path fill="#4FFFA8" d="M136.211,43.519l-0.69-0.257h-3.316l-2.447-1.974l-5.132,3.789l-4.263-3.789l-7.263,1.342l-4.658,0.553
				l-0.789,8.763l1.894,8.368h7.737l4.302-0.631l1.855,3.395l1.974,3.947l-3.473,2.921l2.921,6.631l-0.474,2.605l2.577,1.898
				c6.474-7.418,10.396-17.12,10.396-27.739C137.362,49.959,136.962,46.671,136.211,43.519z"/>
			<path fill="#4FFFA8" d="M58.525,49.393l2.737,0.631l2.737,1.789l3.684,1.158l1.894,0.473l1.789,0.789l-0.947,1.895l-2.947,4.737
				l3.263,3.894l4.631,2.947v2.632l3.053,4.631c0,0-0.316,2.947,0,3.895c0.316,0.947,2.105,5.894,2.105,5.894l1.79,2.316
				l4.316,0.526l-2.737-4.421c0,0,4-6.105,4.316-6.316c0.316-0.21-1.263-2.631-0.947-2.947c0.315-0.316,2.841-3.052,2.841-3.052
				l2.737-3.474l1.158-4.526l-3.474-5.474c0,0-3.894-2.736-3.894-3.052c0-0.316-2.527-3.052-2.527-3.052l-7.052-0.21l-4-1.263
				l-1.474,2.631l-3.368-1.684l0.105-2.781h-2.316h-0.316l-1.474-2.271l2.21-1.684l4.526,2.316l2.842-1.79l3.053-7.157l2.737-3.474
				h4.947l0.737-1.684l3.263-1.579l1.369,0.908l1.473-2.171l-2.842-4l-2.21-0.737l-0.815,0.766l-2.658,2.497l-6.21-1.473
				l-0.842,2.947l-2.737-3.473l3.579-1.263l3.999,1.053l1.579-1.579l5.053-0.737l-4.105-4.315h-4.736l-1.895,3.052l-1.894-2.421
				l-4.58-0.302C61.177,25.984,54.976,35.954,53.364,47.4l3.371,0.581L58.525,49.393z"/>
			<path fill="#4FFFA8" d="M120.574,27.184v1.895l-5.579,1.579l0.526,4l-3.158-1.934l-3.052,2.46l2,2.947l3.053,0.421l5.158-4.105
				l1.474,1.895c0,0-0.947,2.21,0,2.947c0.948,0.737,4.927,1.894,4.927,1.894v-3.579l-2.717-2.421l1.789-1.473l3.263,2.736
				l-1.053,1.895l6.105,2.842c0,0,0.67-0.775,1.644-1.919c-3.065-8.667-8.88-16.034-16.398-21.052l-1.772,6.657L120.574,27.184z"/>
		</g>
		<path opacity="0.1" d="M115.952,16.606c5.658,7.182,9.035,16.246,9.035,26.099c0,23.311-18.897,42.208-42.208,42.208
			c-7.562,0-14.659-1.99-20.798-5.474c7.729,9.81,19.716,16.109,33.173,16.109c23.311,0,42.208-18.897,42.208-42.208
			C137.362,37.592,128.736,23.86,115.952,16.606z"/>
		<path fill="#4FFFA8" d="M62.619,71.513l-0.639-0.639l-1.768,0.363v1.74l-1.856,1.049c0.836,1.484,1.759,2.912,2.762,4.278
			l1.342-0.251l2.635-1.885l0.145-1.716l-2.621-1.257V71.513z"/>
	</g>
</g>
</svg>
