<?xml version="1.0" encoding="utf-8"?>
<!-- Generator: Adobe Illustrator 17.0.0, SVG Export Plug-In . SVG Version: 6.00 Build 0)  -->
<!DOCTYPE svg PUBLIC "-//W3C//DTD SVG 1.1//EN" "http://www.w3.org/Graphics/SVG/1.1/DTD/svg11.dtd" [
	<!ENTITY ns_flows "http://ns.adobe.com/Flows/1.0/">
	<!ENTITY ns_extend "http://ns.adobe.com/Extensibility/1.0/">
	<!ENTITY ns_ai "http://ns.adobe.com/AdobeIllustrator/10.0/">
	<!ENTITY ns_graphs "http://ns.adobe.com/Graphs/1.0/">
]>
<svg version="1.1" id="Layer_1" xmlns:x="&ns_extend;" xmlns:i="&ns_ai;" xmlns:graph="&ns_graphs;"
	 xmlns="http://www.w3.org/2000/svg" xmlns:xlink="http://www.w3.org/1999/xlink" xmlns:a="http://ns.adobe.com/AdobeSVGViewerExtensions/3.0/"
	 x="0px" y="0px" width="103.501px" height="96.337px" viewBox="0 0 103.501 96.337" enable-background="new 0 0 103.501 96.337"
	 xml:space="preserve">
<g>
	<g>
		<g>
			<path fill="#F6F6F6" d="M50.519,25.552c-3.218,0.724-6.349,1.635-9.463,2.722c-1.705,0.595-3.36,1.32-5.012,2.046
				c-2.122,0.932-2.063,1.981-2.787,4.075c-2.002,5.784-3.368,12.221-3.473,18.361c-0.056,3.253-0.04,3.812,2.245,6.451
				c2.368,2.734,5.043,5.186,7.794,7.526c1.341,1.141,2.765,2.178,4.187,3.213c2.072,1.507,4.109,0.531,6.497,0.025
				c0.305-0.065-0.246-4.031,0-4.083c-1.692,0.359-3.38,0.673-5.089,0.945c-1.087,0.173-4.735-3.489-5.595-4.184
				c-3.713-3-7.002-6.494-10.028-10.173c0.002,1.337,0.004,2.673,0.005,4.01c0.469-6.766,1.823-13.289,4.04-19.694
				c1.561-4.51,12.313-6.175,16.679-7.158C50.84,29.562,50.257,25.611,50.519,25.552L50.519,25.552z"/>
		</g>
	</g>
	<g>
		<g>
			<path fill="#F6F6F6" d="M50.518,10.31c-3.614,1.85-6.471,4.674-8.96,7.841c-0.198,0.252-0.091,4.053,0,4.083
				c3.119,1.023,6.083,2.363,8.96,3.937c-0.549-0.3,0.596-3.757,0-4.083c-2.878-1.574-5.842-2.914-8.96-3.937
				c0,1.361,0,2.722,0,4.083c2.489-3.167,5.346-5.991,8.96-7.841C51.094,14.098,49.99,10.58,50.518,10.31L50.518,10.31z"/>
		</g>
	</g>
	<g>
		<g>
			<path fill="#F6F6F6" d="M50.52,69.915c-1.297-0.719-2.566-1.465-3.826-2.247c-1.845-1.145-3.361-0.551-5.489-0.362
				c-3.437,0.306-6.897,0.19-10.319-0.208c0.098,0.011-0.102,3.674,0,4.083c2.363,9.474,8.824,18.644,19.634,13.753
				c0.537-0.243-0.485-3.863,0-4.083c-10.809,4.891-17.271-4.278-19.634-13.753c0,1.361,0,2.722,0,4.083
				c2.987,0.348,5.947,0.423,8.95,0.298c1.869-0.078,3.729-0.312,5.581-0.562c0.866-0.117,4.214,2.589,5.102,3.081
				C49.966,73.691,51.12,70.248,50.52,69.915L50.52,69.915z"/>
		</g>
	</g>
	<g>
		<g>
			<path fill="#F6F6F6" d="M41.558,18.151c-6.062-1.8-13.054-2.723-18.286,1.585c-3.563,2.934-3.699,7.735-3.674,11.95
				c0.012,2.107,0.154,4.088,0.541,6.168c0.359,1.932,1.058,3.794,1.758,5.621c-0.191-0.497,4.604-3.669,5.11-4.024
				c1.542-1.083,3.18-2.023,4.82-2.945c2.27-1.276,2.704-1.614,3.743-4.024c1.573-3.645,3.619-7.069,5.987-10.248
				C42.221,21.344,40.918,19.011,41.558,18.151c-1.545,2.075-2.906,4.231-4.154,6.497c-1.275,2.313-1.914,5.9-4.279,7.086
				c-2.527,1.267-4.915,2.789-7.225,4.412c-1.066,0.749-2.069,1.582-3.068,2.417c-0.858,1.283-1.353,1.08-1.486-0.609
				c-0.335-0.925-0.628-1.863-0.88-2.814c-1.557-5.395,0.414-10.336,5.327-13.023c4.718-2.58,10.932-1.319,15.765,0.116
				C41.215,22.132,41.958,18.27,41.558,18.151z"/>
		</g>
	</g>
	<g>
		<g>
			<path fill="#F6F6F6" d="M29.794,52.477c-2.176-2.795-4.128-5.677-5.857-8.77c-0.778-1.391-1.413-2.852-2.039-4.314
				c0.023,0.053-3.236,3.382-3.494,3.683c-2.812,3.285-4.452,7.253-4.464,11.561c-0.009,3.355,0.016,6.151,1.851,9.146
				c3.022,4.932,9.826,6.598,15.095,7.398c-0.112-0.017,0.088-3.666,0-4.083c-0.742-3.494-1.236-7.02-1.086-10.611
				c0.051-1.23-0.051-2.976-0.011-3.937c-0.26,6.241-0.205,12.495,1.097,18.631c0-1.361,0-2.722,0-4.083
				c-7.448-1.13-15.942-4.208-16.923-12.736c0.007,0.5,0.013,0.999,0.02,1.499c-0.001-0.408-0.002-0.815-0.003-1.223
				c-0.007,0.861-0.013,1.723-0.02,2.584c0.523-5.028,3.271-8.947,6.674-12.534c0.986-1.701,1.611-1.63,1.875,0.214
				c0.643,1.499,1.449,2.925,2.244,4.346c1.447,2.587,3.225,4.978,5.042,7.312C29.147,55.728,30.465,53.339,29.794,52.477z"/>
		</g>
	</g>
</g>
<g>
	<path fill-rule="evenodd" clip-rule="evenodd" fill="#FF8325" d="M88.794,46.465c2.895-2.953,4.682-6.997,4.682-11.455
		c0-4.683-1.974-8.904-5.134-11.89l-6.673,5.011c1.346,1.707,2.155,3.841,2.155,6.166c0,5.584-4.619,10.105-10.312,10.105
		c-3.503,0-6.594-1.715-8.458-4.333l-8.665,6.508c0.12,0.449,0.187,0.918,0.187,1.404c0,2.288-1.417,4.246-3.43,5.064v21.793
		c0,0.551,0.287,1.264,0.764,2.034c1.459,5.618,6.584,9.772,12.679,9.772c6.923,0,12.593-5.36,13.058-12.139
		c8.014-1.103,14.184-7.951,14.184-16.235C93.832,53.634,91.902,49.446,88.794,46.465z"/>
	<path fill-rule="evenodd" clip-rule="evenodd" fill="#FF8325" d="M55.66,44.965l8.517-6.397c-0.62-1.299-0.976-2.743-0.976-4.272
		c0-5.584,4.619-10.105,10.312-10.105c2.69,0,5.132,1.018,6.969,2.672l6.512-4.891c-2.766-2.102-6.218-3.353-9.965-3.353
		c-0.799,0-1.586,0.057-2.355,0.167c-0.54-5.435-5.142-9.68-10.737-9.68c-5.957,0-10.789,4.808-10.789,10.749v0.253v0.098v22.712
		C54.179,43.336,55.052,44.056,55.66,44.965z"/>
</g>
<path fill="#F6F6F6" stroke="#F6F6F6" stroke-width="0.5444" stroke-linecap="round" stroke-linejoin="round" stroke-miterlimit="10" d="
	M50.519,42.677c-0.11-0.007-0.22-0.017-0.331-0.017c-2.896,0-5.237,2.324-5.237,5.188c0,2.863,2.341,5.188,5.237,5.188
	c0.112,0,0.221-0.01,0.331-0.017V42.677z"/>
</svg>
