<?xml version="1.0" encoding="utf-8"?>
<!-- Generator: Adobe Illustrator 17.0.0, SVG Export Plug-In . SVG Version: 6.00 Build 0)  -->
<!DOCTYPE svg PUBLIC "-//W3C//DTD SVG 1.1//EN" "http://www.w3.org/Graphics/SVG/1.1/DTD/svg11.dtd">
<svg version="1.1" id="Layer_1" xmlns="http://www.w3.org/2000/svg" xmlns:xlink="http://www.w3.org/1999/xlink" x="0px" y="0px"
	 width="190.762px" height="68px" viewBox="0 13.669 190.762 68" enable-background="new 0 13.669 190.762 68" xml:space="preserve"
	>
<path fill="#F6F6F6" d="M177.357,34.685h-19.804h-0.376h-7.104v0.152c-2.109-0.006-3.884-0.127-5.324,0.638
	c-1.475,0.789-2.983,1.312-4.502,2.667v-3.457h-7.48v8.367c-0.022-0.174-0.041-0.352-0.065-0.523
	c-0.207-1.285-0.572-2.406-1.11-3.397c-0.893-1.622-2.177-2.918-3.843-3.909c-1.682-0.98-3.669-1.475-5.977-1.475
	s-4.311,0.495-5.977,1.475c-1.677,0.991-2.967,2.286-3.843,3.909c-0.418,0.747-0.728,1.568-0.937,2.477
	c-0.1-1.099-0.318-2.071-0.663-2.902c-0.495-1.165-1.121-2.112-1.9-2.874c-0.773-0.74-1.649-1.279-2.613-1.6
	c-0.98-0.321-1.927-0.484-2.852-0.484c-1.987,0-3.549,0.381-4.66,1.111c-1.11,0.746-2.134,1.633-3.054,2.651
	c-0.686-0.931-1.562-1.791-2.629-2.58c-1.067-0.784-2.395-1.181-4.001-1.181c-1.829,0-3.315,0.381-4.486,1.138
	c-1.17,0.762-2.177,1.72-2.994,2.891v-3.092h-7.48v8.416c-0.13-0.731-0.313-1.443-0.555-2.134c-0.523-1.459-1.252-2.711-2.221-3.789
	c-0.964-1.078-2.128-1.911-3.533-2.52c-1.404-0.599-2.967-0.909-4.692-0.909c-2.308,0-4.306,0.495-5.972,1.475
	c-1.682,0.991-2.967,2.286-3.843,3.909c-0.419,0.748-0.729,1.57-0.938,2.48c-0.101-1.101-0.321-2.074-0.663-2.905
	c-0.501-1.165-1.127-2.112-1.9-2.874c-0.778-0.74-1.655-1.279-2.618-1.6c-0.98-0.321-1.927-0.484-2.847-0.484
	c-1.987,0-3.549,0.381-4.66,1.111c-1.111,0.746-2.134,1.633-3.054,2.651c-0.686-0.931-1.562-1.791-2.629-2.58
	c-1.067-0.784-2.395-1.181-4.007-1.181c-1.824,0-3.315,0.381-4.486,1.138c-1.165,0.762-2.177,1.72-2.994,2.891V34.69h-7.48v37.327
	h7.48V46.465c0-1.693,0.261-2.989,0.817-3.892c0.544-0.904,1.535-1.355,2.967-1.355c1.17,0,2.09,0.408,2.733,1.192
	c0.642,0.806,0.964,1.9,0.964,3.299v26.304h7.48V46.465c0-1.693,0.267-2.989,0.822-3.892c0.539-0.904,1.535-1.355,2.967-1.355
	c1.165,0,2.085,0.408,2.733,1.192c0.642,0.806,0.964,1.9,0.964,3.299v26.304h7.48v-7.602c0.207,0.81,0.491,1.553,0.871,2.223
	c0.876,1.633,2.161,2.929,3.843,3.903c1.666,0.996,3.664,1.475,5.972,1.475c1.726,0,3.277-0.294,4.649-0.876
	s2.559-1.383,3.549-2.417c0.98-0.964,1.726-2.128,2.248-3.5c0.242-0.649,0.425-1.32,0.555-2.012v8.805h7.48V46.465
	c0-1.693,0.261-2.989,0.817-3.892c0.539-0.904,1.535-1.355,2.967-1.355c1.17,0,2.09,0.408,2.733,1.192
	c0.642,0.806,0.964,1.9,0.964,3.299v26.304h7.48V46.465c0-1.693,0.261-2.989,0.817-3.892c0.544-0.904,1.535-1.355,2.967-1.355
	c1.17,0,2.09,0.408,2.733,1.192c0.642,0.806,0.964,1.9,0.964,3.299v26.304h7.48v-7.602c0.207,0.81,0.491,1.553,0.871,2.223
	c0.876,1.633,2.167,2.929,3.843,3.903c1.666,0.996,3.669,1.475,5.977,1.475s4.295-0.479,5.977-1.475
	c1.666-0.974,2.95-2.27,3.843-3.903c0.539-0.98,0.904-2.101,1.11-3.386c0.025-0.17,0.044-0.348,0.065-0.523v9.287h7.48V49.454
	c0-1.546,0.234-2.842,0.729-3.892c0.501-1.051,1.127-1.894,1.889-2.537c0.757-0.642,1.606-1.111,2.51-1.383
	c0.909-0.278,1.769-0.425,2.559-0.425c0.736,0,1.443,0.133,2.139,0.384v30.411h6.712h0.768h19.804v-7.463h-12.199l12.199-23.974
	v-5.89H177.357z M58.941,45.883c0-1.546,0.338-2.711,1.013-3.5c0.67-0.773,1.573-1.165,2.727-1.165c1.143,0,2.063,0.392,2.733,1.165
	c0.675,0.789,1.013,1.954,1.013,3.5v4.665h-7.485L58.941,45.883L58.941,45.883z M66.426,60.815c-0.103,0.833-0.397,1.66-0.866,2.493
	c-0.479,0.833-1.448,1.241-2.88,1.241c-1.154,0-2.058-0.31-2.727-0.92c-0.675-0.615-1.013-1.475-1.013-2.613v-4.867h14.741v4.665
	L66.426,60.815L66.426,60.815z M125.511,60.243c0,1.448-0.338,2.526-1.007,3.239c-0.675,0.713-1.595,1.067-2.733,1.067
	c-1.154,0-2.058-0.354-2.733-1.067c-0.67-0.713-1.007-1.791-1.007-3.239V45.518c0-1.426,0.338-2.51,1.007-3.223
	c0.675-0.713,1.579-1.078,2.733-1.078c1.138,0,2.058,0.365,2.733,1.078c0.67,0.713,1.007,1.796,1.007,3.223V60.243z M157.553,64.69
	V42.148h11.388L157.553,64.69z"/>
<circle fill="#FF8303" stroke="#FF8303" stroke-width="0.5444" stroke-linecap="round" stroke-linejoin="round" stroke-miterlimit="10" cx="153.949" cy="25.741" r="5.444"/>
</svg>
